<?xml version="1.0" encoding="UTF-8"?>
<svg id="Layer_1" data-name="Layer 1" xmlns="http://www.w3.org/2000/svg" viewBox="0 0 959.72 846.63">
  <defs>
    <style>
      .cls-1 {
        fill: #fff;
        stroke-width: 0px;
      }
    </style>
  </defs>
  <path class="cls-1" d="M496.34,468.15l-91.73,315.83c80.58,54.66,170.19,98.09,356.14,20.87l91.86-316.71c-185.59,77.06-275.2,33.99-356.26-19.99h0ZM495.9,467.82l.44.32.12-.32h-.56ZM264.6,374.09c-63.38,3.02-122.54,17.94-176.33,42.57l2.98-1.22L0,734.35c185.95-77.18,274.44-32.11,355.02,21.99l93.01-319.51c-50.13-39.09-113.99-62.7-183.37-62.78h-.02l-.04.04ZM601.91,96.41l-90.22,317.87c80.62,54.66,177.55,99.73,356.18,19.71l91.85-317.31h-1.68c-185.98,77.22-276.16,33.83-356.18-20.27h.04ZM371.97,0c-63.5,3.16-122.73,18.21-176.56,42.97l2.98-1.23-91.29,317.87c53.09-25.3,115.08-41.23,180.47-43.95l.96-.03c66.41,2.63,126.85,26.18,175.42,64.2l-.67-.5,91.81-316.71C505.09,23.57,441.35,0,372.1,0h-.17.05Z"/>
</svg>